<?xml version="1.0" standalone="no"?><!DOCTYPE svg PUBLIC "-//W3C//DTD SVG 1.1//EN" "http://www.w3.org/Graphics/SVG/1.1/DTD/svg11.dtd"><svg class="icon" width="128px" height="128.00px" viewBox="0 0 1024 1024" version="1.1" xmlns="http://www.w3.org/2000/svg"><path d="M908.124 351.443H796.213v111.91c0 18.534-15.057 33.59-33.588 33.59-18.533 0-33.59-15.056-33.59-33.59v-111.91H617.126c-18.575 0-33.59-15.016-33.59-33.589 0-18.534 15.015-33.588 33.59-33.588h111.909v-111.91c0-18.534 15.057-33.55 33.59-33.55 18.531 0 33.588 15.016 33.588 33.55v111.91h111.911c18.531 0 33.588 15.054 33.588 33.588 0 18.573-15.057 33.589-33.588 33.589z" fill="#040000" /><path d="M848.771 524.881v275.311c0 35.765-29.045 64.809-64.767 64.809H266.218c-35.721 0-64.726-29.044-64.726-64.809V281.698c0-35.764 29.004-64.769 64.726-64.769h277.564c17.546 0 32.128-14.582 32.128-32.167-0.04-17.702-14.424-32.088-32.207-32.166H266.218c-71.522 0.078-129.494 58.089-129.454 129.613v518.496c-0.04 71.523 57.932 129.575 129.454 129.613h517.786c71.563-0.038 129.494-58.09 129.494-129.613V524.881c-0.08-17.703-14.386-32.088-32.165-32.167-17.508-0.474-32.088 13.318-32.563 30.863a6.51 6.51 0 0 0 0 1.264v0.04z" fill="#040000" /></svg>