<?xml version="1.0" standalone="no"?><!DOCTYPE svg PUBLIC "-//W3C//DTD SVG 1.1//EN" "http://www.w3.org/Graphics/SVG/1.1/DTD/svg11.dtd"><svg class="icon" width="128px" height="128.00px" viewBox="0 0 1024 1024" version="1.1" xmlns="http://www.w3.org/2000/svg"><path d="M854.2208 314.7776a55.296 55.296 0 0 1 110.4896 0v535.3472a111.616 111.616 0 0 1-111.616 111.616H176.7424a111.616 111.616 0 0 1-111.616-111.616V173.8752c0-61.6448 50.0736-111.616 111.616-111.616h536.1664a55.296 55.296 0 0 1 0 110.4896H176.7424a1.1264 1.1264 0 0 0-1.024 1.024v676.352c0 0.6144 0.4096 1.1264 1.024 1.1264h676.352a1.1264 1.1264 0 0 0 1.1264-1.024v-535.552z" fill="#595959" /><path d="M891.0848 82.2272a55.296 55.296 0 0 1 76.1856 79.872L567.9104 542.72a55.296 55.296 0 1 1-76.288-79.9744L891.0848 82.2272z" fill="#595959" /></svg>