<?xml version="1.0" standalone="no"?><!DOCTYPE svg PUBLIC "-//W3C//DTD SVG 1.1//EN" "http://www.w3.org/Graphics/SVG/1.1/DTD/svg11.dtd"><svg class="icon" width="200px" height="200.00px" viewBox="0 0 1024 1024" version="1.1" xmlns="http://www.w3.org/2000/svg"><path d="M511.999978 4.901197c3.19453 0 6.170256 1.881709 7.483077 4.813675l0.743932 1.706666 1.706666 0.743932c2.931966 1.312821 4.813675 4.244786 4.813676 7.483077S524.865619 25.818803 521.933653 27.131624l-1.706666 0.787692-0.743932 1.706667a8.227009 8.227009 0 0 1-14.966154 0l-0.743931-1.706667-1.706667-0.743931c-2.931966-1.312821-4.813675-4.244786-4.813675-7.483077s1.881709-6.170256 4.813675-7.483077l1.706667-0.743932 0.743931-1.706667c1.356581-2.931966 4.244786-4.813675 7.483077-4.857435M511.999978 0C506.661175 0 502.110064 3.19453 500.053311 7.745641 495.5022 9.802393 492.30767 14.353504 492.30767 19.692308s3.19453 9.889915 7.745641 11.946666A13.106325 13.106325 0 0 0 511.999978 39.384615c5.338803 0 9.889915-3.19453 11.946667-7.745641C528.497756 29.582222 531.692286 25.031111 531.692286 19.692308s-3.19453-9.889915-7.745641-11.946667A13.106325 13.106325 0 0 0 511.999978 0z" fill="#ffffff" /><path d="M511.999978 44.285812c3.19453 0 6.170256 1.881709 7.483077 4.813675l0.743932 1.706667 1.706666 0.743931c2.931966 1.312821 4.813675 4.244786 4.813676 7.483077s-1.881709 6.170256-4.813676 7.483077l-1.706666 0.743932-0.743932 1.706667a8.227009 8.227009 0 0 1-14.966154 0l-0.743931-1.706667-1.706667-0.743932c-2.931966-1.312821-4.813675-4.244786-4.813675-7.483077s1.881709-6.170256 4.813675-7.483077l1.706667-0.743931 0.743931-1.706667c1.356581-2.888205 4.244786-4.769915 7.483077-4.813675M511.999978 39.384615c-5.338803 0-9.889915 3.19453-11.946667 7.745641C495.5022 49.187009 492.30767 53.73812 492.30767 59.076923s3.19453 9.889915 7.745641 11.946667A13.106325 13.106325 0 0 0 511.999978 78.769231c5.338803 0 9.889915-3.19453 11.946667-7.745641C528.497756 68.966838 531.692286 64.415726 531.692286 59.076923s-3.19453-9.889915-7.745641-11.946667A13.053812 13.053812 0 0 0 511.999978 39.384615z" fill="#ffffff" /><path d="M511.999978 83.670427c3.19453 0 6.170256 1.881709 7.483077 4.813676l0.743932 1.706666 1.706666 0.743932a8.227009 8.227009 0 0 1 0 14.966154l-1.706666 0.743931-0.743932 1.706667a8.227009 8.227009 0 0 1-14.966154 0l-0.743931-1.706667-1.706667-0.743931a8.227009 8.227009 0 0 1 0-14.966154l1.706667-0.743932 0.743931-1.706666c1.312821-2.888205 4.244786-4.813675 7.483077-4.813676m0-4.901196c-5.338803 0-9.889915 3.19453-11.946667 7.745641A13.058188 13.058188 0 0 0 492.30767 98.461538c0 5.338803 3.19453 9.889915 7.745641 11.946667A13.106325 13.106325 0 0 0 511.999978 118.153846c5.338803 0 9.889915-3.19453 11.946667-7.745641A13.154462 13.154462 0 0 0 531.692286 98.461538c0-5.338803-3.19453-9.889915-7.745641-11.946666A13.036308 13.036308 0 0 0 511.999978 78.769231z m0 44.285812c3.19453 0 6.170256 1.881709 7.483077 4.813675l0.743932 1.706667 1.706666 0.743931a8.227009 8.227009 0 0 1 0 14.966154l-1.706666 0.743932-0.743932 1.706666a8.227009 8.227009 0 0 1-14.966154 0l-0.743931-1.706666-1.706667-0.743932a8.227009 8.227009 0 0 1 0-14.966154l1.706667-0.743931 0.743931-1.706667c1.356581-2.931966 4.244786-4.813675 7.483077-4.813675m0-4.901197c-5.338803 0-9.889915 3.19453-11.946667 7.745641C495.5022 127.912479 492.30767 132.50735 492.30767 137.846154s3.19453 9.889915 7.745641 11.946667A13.106325 13.106325 0 0 0 511.999978 157.538462c5.338803 0 9.889915-3.19453 11.946667-7.745641C528.497756 147.736068 531.692286 143.141197 531.692286 137.846154s-3.19453-9.889915-7.745641-11.946667A13.036308 13.036308 0 0 0 511.999978 118.153846z" fill="#ffffff" /><path d="M511.999978 162.439658c3.19453 0 6.170256 1.881709 7.483077 4.813675l0.743932 1.706667 1.706666 0.743932a8.227009 8.227009 0 0 1 0 14.966153l-1.706666 0.743932-0.743932 1.706667a8.227009 8.227009 0 0 1-14.966154 0l-0.743931-1.706667-1.706667-0.743932a8.227009 8.227009 0 0 1 0-14.966153l1.706667-0.743932 0.743931-1.706667c1.356581-2.931966 4.244786-4.813675 7.483077-4.813675m0-4.901196c-5.338803 0-9.889915 3.19453-11.946667 7.745641A13.058188 13.058188 0 0 0 492.30767 177.230769c0 5.338803 3.19453 9.889915 7.745641 11.946667A13.106325 13.106325 0 0 0 511.999978 196.923077c5.338803 0 9.889915-3.19453 11.946667-7.745641A13.154462 13.154462 0 0 0 531.692286 177.230769c0-5.338803-3.19453-9.889915-7.745641-11.946666A13.053812 13.053812 0 0 0 511.999978 157.538462z" fill="#ffffff" /><path d="M511.999978 201.824274c3.19453 0 6.170256 1.881709 7.483077 4.813675l0.743932 1.706666 1.706666 0.743932a8.227009 8.227009 0 0 1 0 14.966154l-1.706666 0.743931-0.743932 1.706667a8.227009 8.227009 0 0 1-14.966154 0l-0.743931-1.706667-1.706667-0.743931a8.227009 8.227009 0 0 1 0-14.966154l1.706667-0.743932 0.743931-1.706666c1.356581-2.931966 4.244786-4.813675 7.483077-4.813675m0-4.944958c-5.338803 0-9.889915 3.19453-11.946667 7.745641C495.5022 206.681709 492.30767 211.276581 492.30767 216.571624s3.19453 9.889915 7.745641 11.946667a13.154462 13.154462 0 0 0 11.946667 7.745641c5.338803 0 9.889915-3.19453 11.946667-7.745641C528.497756 226.505299 531.692286 221.910427 531.692286 216.571624s-3.19453-9.889915-7.745641-11.946667a13.106325 13.106325 0 0 0-11.946667-7.745641z m0 44.329573c3.19453 0 6.170256 1.881709 7.483077 4.813675l0.743932 1.706667 1.706666 0.743931a8.227009 8.227009 0 0 1 0 14.966154l-1.706666 0.743932-0.743932 1.706667a8.227009 8.227009 0 0 1-14.966154 0l-0.743931-1.706667-1.706667-0.743932a8.227009 8.227009 0 0 1 0-14.966154l1.706667-0.743931 0.743931-1.706667c1.356581-2.931966 4.244786-4.813675 7.483077-4.813675m0-4.944957c-5.338803 0-9.889915 3.19453-11.946667 7.745641A13.154462 13.154462 0 0 0 492.30767 255.956239c0 5.338803 3.19453 9.889915 7.745641 11.946667a13.154462 13.154462 0 0 0 11.946667 7.745641c5.338803 0 9.889915-3.19453 11.946667-7.745641A13.058188 13.058188 0 0 0 531.692286 255.956239c0-5.338803-3.19453-9.889915-7.745641-11.946666a13.106325 13.106325 0 0 0-11.946667-7.745641z" fill="#ffffff" /><path d="M511.999978 280.593504c3.19453 0 6.170256 1.881709 7.483077 4.813675l0.743932 1.706667 1.706666 0.743932a8.227009 8.227009 0 0 1 0 14.966154l-1.706666 0.743931-0.743932 1.706667a8.227009 8.227009 0 0 1-14.966154 0l-0.743931-1.706667-1.706667-0.743931a8.227009 8.227009 0 0 1 0-14.966154l1.706667-0.743932 0.743931-1.706667c1.356581-2.931966 4.244786-4.813675 7.483077-4.813675m0-4.944957c-5.338803 0-9.889915 3.19453-11.946667 7.745641C495.5022 285.45094 492.30767 290.045812 492.30767 295.340855s3.19453 9.889915 7.745641 11.946666a13.154462 13.154462 0 0 0 11.946667 7.745641c5.338803 0 9.889915-3.19453 11.946667-7.745641C528.497756 305.27453 531.692286 300.679658 531.692286 295.340855s-3.19453-9.889915-7.745641-11.946667a13.053812 13.053812 0 0 0-11.946667-7.745641zM511.999978 319.97812c3.19453 0 6.170256 1.881709 7.483077 4.813675l0.743932 1.706667 1.706666 0.743931c2.931966 1.312821 4.813675 4.244786 4.813676 7.483077s-1.881709 6.170256-4.813676 7.483077l-1.706666 0.743932-0.743932 1.706666a8.227009 8.227009 0 0 1-14.966154 0l-0.743931-1.706666-1.706667-0.743932c-2.931966-1.312821-4.813675-4.244786-4.813675-7.483077s1.881709-6.170256 4.813675-7.483077l1.706667-0.743931 0.743931-1.706667c1.356581-2.931966 4.244786-4.813675 7.483077-4.813675m0-4.944958c-5.338803 0-9.889915 3.19453-11.946667 7.745641C495.5022 324.835556 492.30767 329.386667 492.30767 334.72547s3.19453 9.889915 7.745641 11.946667a13.154462 13.154462 0 0 0 11.946667 7.745641c5.338803 0 9.889915-3.19453 11.946667-7.745641C528.497756 344.615385 531.692286 340.064274 531.692286 334.72547s-3.19453-9.889915-7.745641-11.946667a13.106325 13.106325 0 0 0-11.946667-7.745641z m0 44.329573c3.19453 0 6.170256 1.881709 7.483077 4.813675l0.743932 1.706667 1.706666 0.743932c2.931966 1.312821 4.813675 4.244786 4.813676 7.483076s-1.881709 6.170256-4.813676 7.483077l-1.706666 0.743932-0.743932 1.706667a8.227009 8.227009 0 0 1-14.966154 0l-0.743931-1.706667-1.706667-0.743932c-2.931966-1.312821-4.813675-4.244786-4.813675-7.483077s1.881709-6.170256 4.813675-7.483076l1.706667-0.743932 0.743931-1.706667c1.356581-2.931966 4.244786-4.813675 7.483077-4.813675m0-4.944957c-5.338803 0-9.889915 3.19453-11.946667 7.745641A13.106325 13.106325 0 0 0 492.30767 374.110085c0 5.338803 3.19453 9.889915 7.745641 11.946667a13.154462 13.154462 0 0 0 11.946667 7.745641c5.338803 0 9.889915-3.19453 11.946667-7.745641A13.106325 13.106325 0 0 0 531.692286 374.110085c0-5.338803-3.19453-9.889915-7.745641-11.946666a13.106325 13.106325 0 0 0-11.946667-7.745641z" fill="#ffffff" /><path d="M511.999978 398.74735c3.19453 0 6.170256 1.881709 7.483077 4.813676l0.743932 1.706666 1.706666 0.743932c2.931966 1.312821 4.813675 4.244786 4.813676 7.483077s-1.881709 6.170256-4.813676 7.483077l-1.706666 0.743931-0.743932 1.706667a8.227009 8.227009 0 0 1-14.966154 0l-0.743931-1.706667-1.706667-0.743931c-2.931966-1.312821-4.813675-4.244786-4.813675-7.483077s1.881709-6.170256 4.813675-7.483077l1.706667-0.743932 0.743931-1.706666c1.312821-2.931966 4.244786-4.813675 7.483077-4.813676m0-4.944957c-5.338803 0-9.889915 3.19453-11.946667 7.745641A13.106325 13.106325 0 0 0 492.30767 413.494701c0 5.338803 3.19453 9.889915 7.745641 11.946667a13.154462 13.154462 0 0 0 11.946667 7.745641c5.338803 0 9.889915-3.19453 11.946667-7.745641A13.106325 13.106325 0 0 0 531.692286 413.494701c0-5.338803-3.19453-9.889915-7.745641-11.946667a13.053812 13.053812 0 0 0-11.946667-7.745641z" fill="#ffffff" /><path d="M511.999978 438.088205c3.19453 0 6.170256 1.881709 7.483077 4.813675l0.743932 1.706667 1.706666 0.743932a8.227009 8.227009 0 0 1 0 14.966153l-1.706666 0.743932-0.743932 1.706667a8.227009 8.227009 0 0 1-14.966154 0l-0.743931-1.706667-1.706667-0.743932a8.227009 8.227009 0 0 1 0-14.966153l1.706667-0.743932 0.743931-1.706667c1.356581-2.888205 4.244786-4.813675 7.483077-4.813675m0-4.901196c-5.338803 0-9.889915 3.19453-11.946667 7.745641A13.106325 13.106325 0 0 0 492.30767 452.879316c0 5.338803 3.19453 9.889915 7.745641 11.946667a13.154462 13.154462 0 0 0 11.946667 7.745641c5.338803 0 9.889915-3.19453 11.946667-7.745641A13.154462 13.154462 0 0 0 531.692286 452.879316c0-5.338803-3.19453-9.889915-7.745641-11.946666a13.036308 13.036308 0 0 0-11.946667-7.745641z m0 44.285812c3.19453 0 6.170256 1.881709 7.483077 4.813675l0.743932 1.706666 1.706666 0.743932a8.227009 8.227009 0 0 1 0 14.966154l-1.706666 0.743931-0.743932 1.706667a8.227009 8.227009 0 0 1-14.966154 0l-0.743931-1.706667-1.706667-0.743931a8.227009 8.227009 0 0 1 0-14.966154l1.706667-0.743932 0.743931-1.706666c1.356581-2.888205 4.244786-4.813675 7.483077-4.813675m0-4.901197c-5.338803 0-9.889915 3.19453-11.946667 7.745641-4.551111 2.056752-7.745641 6.607863-7.745641 11.946667s3.19453 9.889915 7.745641 11.946666a13.154462 13.154462 0 0 0 11.946667 7.745641c5.338803 0 9.889915-3.19453 11.946667-7.745641 4.551111-2.056752 7.745641-6.651624 7.745641-11.946666s-3.19453-9.889915-7.745641-11.946667a13.036308 13.036308 0 0 0-11.946667-7.745641z" fill="#ffffff" /><path d="M511.999978 516.857436c3.19453 0 6.170256 1.881709 7.483077 4.813675l0.743932 1.706667 1.706666 0.743931c2.931966 1.312821 4.813675 4.244786 4.813676 7.483077s-1.881709 6.170256-4.813676 7.483077l-1.706666 0.743932-0.743932 1.706667a8.227009 8.227009 0 0 1-14.966154 0l-0.743931-1.706667-1.706667-0.743932c-2.931966-1.312821-4.813675-4.244786-4.813675-7.483077s1.881709-6.170256 4.813675-7.483077l1.706667-0.743931 0.743931-1.706667c1.312821-2.931966 4.244786-4.813675 7.483077-4.813675m0-4.901197c-5.338803 0-9.889915 3.19453-11.946667 7.745641-4.551111 2.056752-7.745641 6.607863-7.745641 11.946667s3.19453 9.889915 7.745641 11.946667a13.154462 13.154462 0 0 0 11.946667 7.745641c5.338803 0 9.889915-3.19453 11.946667-7.745641 4.551111-2.056752 7.745641-6.651624 7.745641-11.946667s-3.19453-9.889915-7.745641-11.946667a13.053812 13.053812 0 0 0-11.946667-7.745641z" fill="#ffffff" /><path d="M511.999978 556.242051c3.19453 0 6.170256 1.881709 7.483077 4.813675l0.743932 1.706667 1.706666 0.743932a8.227009 8.227009 0 0 1 0 14.966154l-1.706666 0.743931-0.743932 1.706667a8.227009 8.227009 0 0 1-14.966154 0l-0.743931-1.706667-1.706667-0.743931a8.227009 8.227009 0 0 1 0-14.966154l1.706667-0.743932 0.743931-1.706667c1.356581-2.931966 4.244786-4.813675 7.483077-4.813675m0-4.901196c-5.338803 0-9.889915 3.19453-11.946667 7.745641-4.551111 2.012991-7.745641 6.607863-7.745641 11.946666s3.19453 9.889915 7.745641 11.946667a13.154462 13.154462 0 0 0 11.946667 7.745641c5.338803 0 9.889915-3.19453 11.946667-7.745641 4.551111-2.056752 7.745641-6.651624 7.745641-11.946667s-3.19453-9.889915-7.745641-11.946666a13.036308 13.036308 0 0 0-11.946667-7.745641z" fill="#ffffff" /><path d="M511.999978 595.626667c3.19453 0 6.170256 1.881709 7.483077 4.813675l0.743932 1.706667 1.706666 0.743931c2.931966 1.312821 4.813675 4.244786 4.813676 7.483077s-1.881709 6.170256-4.813676 7.483077l-1.706666 0.743932-0.743932 1.706666a8.227009 8.227009 0 0 1-14.966154 0l-0.743931-1.706666-1.706667-0.743932c-2.931966-1.312821-4.813675-4.244786-4.813675-7.483077s1.881709-6.170256 4.813675-7.483077l1.706667-0.743931 0.743931-1.706667c1.356581-2.931966 4.244786-4.813675 7.483077-4.813675m0-4.901197c-5.338803 0-9.889915 3.19453-11.946667 7.745641-4.551111 2.012991-7.745641 6.607863-7.745641 11.946667s3.19453 9.889915 7.745641 11.946666a13.154462 13.154462 0 0 0 11.946667 7.745641c5.338803 0 9.889915-3.19453 11.946667-7.745641 4.551111-2.056752 7.745641-6.651624 7.745641-11.946666s-3.19453-9.889915-7.745641-11.946667a12.983795 12.983795 0 0 0-11.946667-7.745641z" fill="#ffffff" /><path d="M511.999978 635.011282c3.19453 0 6.170256 1.881709 7.483077 4.813675l0.743932 1.706667 1.706666 0.743932a8.227009 8.227009 0 0 1 0 14.966153l-1.706666 0.743932-0.743932 1.706667a8.227009 8.227009 0 0 1-14.966154 0l-0.743931-1.706667-1.706667-0.743932a8.227009 8.227009 0 0 1 0-14.966153l1.706667-0.743932 0.743931-1.706667c1.312821-2.931966 4.244786-4.813675 7.483077-4.813675m0-4.944957c-5.338803 0-9.889915 3.19453-11.946667 7.745641A13.106325 13.106325 0 0 0 492.30767 649.758632c0 5.338803 3.19453 9.889915 7.745641 11.946667a13.154462 13.154462 0 0 0 11.946667 7.745641c5.338803 0 9.889915-3.19453 11.946667-7.745641A13.058188 13.058188 0 0 0 531.692286 649.758632c0-5.338803-3.19453-9.889915-7.745641-11.946666a13.106325 13.106325 0 0 0-11.946667-7.745641z m0 44.329572c3.19453 0 6.170256 1.881709 7.483077 4.813676l0.743932 1.706666 1.706666 0.743932a8.227009 8.227009 0 0 1 0 14.966154l-1.706666 0.743931-0.743932 1.706667a8.227009 8.227009 0 0 1-14.966154 0l-0.743931-1.706667-1.706667-0.743931a8.227009 8.227009 0 0 1 0-14.966154l1.706667-0.743932 0.743931-1.706666c1.356581-2.931966 4.244786-4.813675 7.483077-4.813676m0-4.944957c-5.338803 0-9.889915 3.19453-11.946667 7.745641A13.106325 13.106325 0 0 0 492.30767 689.143248c0 5.338803 3.19453 9.889915 7.745641 11.946667a13.154462 13.154462 0 0 0 11.946667 7.745641c5.338803 0 9.889915-3.19453 11.946667-7.745641A13.058188 13.058188 0 0 0 531.692286 689.143248c0-5.338803-3.19453-9.889915-7.745641-11.946667a13.106325 13.106325 0 0 0-11.946667-7.745641z" fill="#ffffff" /><path d="M511.999978 713.780513c3.19453 0 6.170256 1.881709 7.483077 4.813675l0.743932 1.706667 1.706666 0.743931a8.227009 8.227009 0 0 1 0 14.966154l-1.706666 0.743932-0.743932 1.706666a8.227009 8.227009 0 0 1-14.966154 0l-0.743931-1.706666-1.706667-0.743932a8.227009 8.227009 0 0 1 0-14.966154l1.706667-0.743931 0.743931-1.706667c1.356581-2.931966 4.244786-4.813675 7.483077-4.813675m0-4.944957c-5.338803 0-9.889915 3.19453-11.946667 7.745641A13.106325 13.106325 0 0 0 492.30767 728.527863c0 5.338803 3.19453 9.889915 7.745641 11.946667a13.154462 13.154462 0 0 0 11.946667 7.745641c5.338803 0 9.889915-3.19453 11.946667-7.745641A13.058188 13.058188 0 0 0 531.692286 728.527863c0-5.338803-3.19453-9.889915-7.745641-11.946666a13.053812 13.053812 0 0 0-11.946667-7.745641z" fill="#ffffff" /><path d="M511.999978 753.165128c3.19453 0 6.170256 1.881709 7.483077 4.813675l0.743932 1.706667 1.706666 0.743932a8.227009 8.227009 0 0 1 0 14.966154l-1.706666 0.743931-0.743932 1.706667a8.227009 8.227009 0 0 1-14.966154 0l-0.743931-1.706667-1.706667-0.743931a8.227009 8.227009 0 0 1 0-14.966154l1.706667-0.743932 0.743931-1.706667c1.312821-2.931966 4.244786-4.813675 7.483077-4.813675m0-4.944957c-5.338803 0-9.889915 3.19453-11.946667 7.745641A13.106325 13.106325 0 0 0 492.30767 767.912479c0 5.338803 3.19453 9.889915 7.745641 11.946666a13.154462 13.154462 0 0 0 11.946667 7.745641c5.338803 0 9.889915-3.19453 11.946667-7.745641A13.106325 13.106325 0 0 0 531.692286 767.912479c0-5.338803-3.19453-9.889915-7.745641-11.946667a13.036308 13.036308 0 0 0-11.946667-7.745641z m0 44.285812c3.19453 0 6.170256 1.881709 7.483077 4.813675l0.743932 1.706667 1.706666 0.743931a8.227009 8.227009 0 0 1 0 14.966154l-1.706666 0.743932-0.743932 1.706667a8.227009 8.227009 0 0 1-14.966154 0l-0.743931-1.706667-1.706667-0.743932a8.227009 8.227009 0 0 1 0-14.966154l1.706667-0.743931 0.743931-1.706667c1.356581-2.888205 4.244786-4.769915 7.483077-4.813675m0-4.901197c-5.338803 0-9.889915 3.19453-11.946667 7.745641A13.106325 13.106325 0 0 0 492.30767 807.297094c0 5.338803 3.19453 9.889915 7.745641 11.946667a13.154462 13.154462 0 0 0 11.946667 7.745641c5.338803 0 9.889915-3.19453 11.946667-7.745641A13.106325 13.106325 0 0 0 531.692286 807.297094c0-5.338803-3.19453-9.889915-7.745641-11.946667a13.036308 13.036308 0 0 0-11.946667-7.745641z" fill="#ffffff" /><path d="M511.999978 831.890598c3.19453 0 6.170256 1.881709 7.483077 4.813676l0.743932 1.706666 1.706666 0.743932a8.227009 8.227009 0 0 1 0 14.966154l-1.706666 0.743931-0.743932 1.706667a8.227009 8.227009 0 0 1-14.966154 0l-0.743931-1.706667-1.706667-0.743931a8.227009 8.227009 0 0 1 0-14.966154l1.706667-0.743932 0.743931-1.706666c1.356581-2.888205 4.244786-4.769915 7.483077-4.813676m0-4.901196c-5.338803 0-9.889915 3.19453-11.946667 7.745641A13.106325 13.106325 0 0 0 492.30767 846.681709c0 5.338803 3.19453 9.889915 7.745641 11.946667a13.154462 13.154462 0 0 0 11.946667 7.745641c5.338803 0 9.889915-3.19453 11.946667-7.745641A13.106325 13.106325 0 0 0 531.692286 846.681709c0-5.338803-3.19453-9.889915-7.745641-11.946666a13.053812 13.053812 0 0 0-11.946667-7.745641z" fill="#ffffff" /><path d="M511.999978 871.275214c3.19453 0 6.170256 1.881709 7.483077 4.813675l0.743932 1.706667 1.706666 0.743931a8.227009 8.227009 0 0 1 0 14.966154l-1.706666 0.743932-0.743932 1.706666a8.227009 8.227009 0 0 1-14.966154 0l-0.743931-1.706666-1.706667-0.743932a8.227009 8.227009 0 0 1 0-14.966154l1.706667-0.743931 0.743931-1.706667c1.312821-2.888205 4.244786-4.813675 7.483077-4.813675m0-4.901197c-5.338803 0-9.889915 3.19453-11.946667 7.745641A13.058188 13.058188 0 0 0 492.30767 886.066325c0 5.338803 3.19453 9.889915 7.745641 11.946666a13.154462 13.154462 0 0 0 11.946667 7.745641c5.338803 0 9.889915-3.19453 11.946667-7.745641A13.154462 13.154462 0 0 0 531.692286 886.066325c0-5.338803-3.19453-9.889915-7.745641-11.946667a13.036308 13.036308 0 0 0-11.946667-7.745641z m0 44.285812c3.19453 0 6.170256 1.881709 7.483077 4.813675l0.743932 1.706667 1.706666 0.743932c2.931966 1.312821 4.813675 4.244786 4.813676 7.483076s-1.881709 6.170256-4.813676 7.483077l-1.706666 0.743932-0.743932 1.706667a8.227009 8.227009 0 0 1-14.966154 0l-0.743931-1.706667-1.706667-0.743932c-2.931966-1.312821-4.813675-4.244786-4.813675-7.483077s1.881709-6.170256 4.813675-7.483076l1.706667-0.743932 0.743931-1.706667c1.356581-2.931966 4.244786-4.813675 7.483077-4.813675m0-4.901197c-5.338803 0-9.889915 3.19453-11.946667 7.745642-4.551111 2.012991-7.745641 6.607863-7.745641 11.946666s3.19453 9.889915 7.745641 11.946667a13.154462 13.154462 0 0 0 11.946667 7.745641c5.338803 0 9.889915-3.19453 11.946667-7.745641 4.551111-2.056752 7.745641-6.651624 7.745641-11.946667s-3.19453-9.889915-7.745641-11.946666a13.036308 13.036308 0 0 0-11.946667-7.745642z" fill="#ffffff" /><path d="M511.999978 950.044444c3.19453 0 6.170256 1.881709 7.483077 4.813676l0.743932 1.706666 1.706666 0.743932c2.931966 1.312821 4.813675 4.244786 4.813676 7.483077s-1.881709 6.170256-4.813676 7.483077l-1.706666 0.743931-0.743932 1.706667a8.227009 8.227009 0 0 1-14.966154 0l-0.743931-1.706667-1.706667-0.743931c-2.931966-1.312821-4.813675-4.244786-4.813675-7.483077s1.881709-6.170256 4.813675-7.483077l1.706667-0.743932 0.743931-1.706666c1.356581-2.931966 4.244786-4.813675 7.483077-4.813676m0-4.901196c-5.338803 0-9.889915 3.19453-11.946667 7.745641-4.551111 2.012991-7.745641 6.607863-7.745641 11.946667s3.19453 9.889915 7.745641 11.946666a13.154462 13.154462 0 0 0 11.946667 7.745641c5.338803 0 9.889915-3.19453 11.946667-7.745641 4.551111-2.056752 7.745641-6.651624 7.745641-11.946666s-3.19453-9.889915-7.745641-11.946667a13.053812 13.053812 0 0 0-11.946667-7.745641z" fill="#ffffff" /><path d="M511.999978 989.42906c3.19453 0 6.170256 1.881709 7.483077 4.813675l0.743932 1.706667 1.706666 0.743931a8.227009 8.227009 0 0 1 0 14.966154l-1.706666 0.743932-0.743932 1.706666a8.227009 8.227009 0 0 1-14.966154 0l-0.743931-1.706666-1.706667-0.743932a8.227009 8.227009 0 0 1 0-14.966154l1.706667-0.743931 0.743931-1.706667c1.312821-2.931966 4.244786-4.813675 7.483077-4.813675m0-4.944957c-5.338803 0-9.889915 3.19453-11.946667 7.745641-4.551111 2.056752-7.745641 6.651624-7.745641 11.946666s3.19453 9.889915 7.745641 11.946667a13.154462 13.154462 0 0 0 11.946667 7.745641c5.338803 0 9.889915-3.19453 11.946667-7.745641 4.551111-2.056752 7.745641-6.651624 7.745641-11.946667s-3.19453-9.889915-7.745641-11.946666a13.106325 13.106325 0 0 0-11.946667-7.745641z" fill="#ffffff" /></svg>